/* XPM */
static char *netw_xpm[] = {
/* columns rows colors chars-per-pixel */
"32 32 89 1 ",
"  c #0071AF",
". c #0070B0",
"X c #0070B1",
"o c #0079BF",
"O c #00A2FE",
"+ c #01A2FE",
"@ c #00A2FF",
"# c #04A3FE",
"$ c #0DA6FE",
"% c #0EA7FE",
"& c #11A8FE",
"* c #1EACFE",
"= c #1FADFE",
"- c #20ADFE",
"; c #23AEFE",
": c #24AFFF",
"> c #29B0FE",
", c #2BB1FE",
"< c #2AB1FF",
"1 c #2CB2FE",
"2 c #34B5FE",
"3 c #35B5FF",
"4 c #38B6FE",
"5 c #3CB7FE",
"6 c #3EB8FE",
"7 c #40B9FE",
"8 c #45BBFE",
"9 c #45BBFF",
"0 c #46BBFF",
"q c #48BCFF",
"w c #4ABCFE",
"e c #4BBDFE",
"r c #50BFFE",
"t c #51BFFE",
"y c #50BFFF",
"u c #51BFFF",
"i c #52BFFE",
"p c #56C1FE",
"a c #5EC4FE",
"s c #5FC4FE",
"d c #60C5FE",
"f c #63C5FE",
"g c #65C6FE",
"h c #66C7FE",
"j c #67C7FF",
"k c #6CC9FF",
"l c #6FCAFE",
"z c #70CAFE",
"x c #74CCFE",
"c c #75CCFE",
"v c #77CDFE",
"b c #7BCEFE",
"n c #81D1FE",
"m c #82D1FE",
"M c #83D1FE",
"N c #85D2FE",
"B c #87D2FE",
"V c #8AD4FE",
"C c #8BD4FE",
"Z c #8FD6FE",
"A c #93D7FE",
"S c #96D8FE",
"D c #9AD9FE",
"F c #9FDBFE",
"G c #A0DCFE",
"H c #A3DDFE",
"J c #A5DDFE",
"K c #A6DEFE",
"L c #ADE0FE",
"P c #AFE1FE",
"I c #B0E1FE",
"U c #B3E2FE",
"Y c #B3E3FE",
"T c #B4E3FE",
"R c #B5E3FE",
"E c #B6E4FE",
"W c #B8E4FE",
"Q c #B9E5FE",
"! c #BAE5FE",
"~ c #BDE6FE",
"^ c #C4E9FE",
"/ c #C5E9FE",
"( c #C6E9FE",
") c #C8EAFE",
"_ c #C9EBFE",
"` c #CAEBFE",
"' c #CEECFF",
"] c #CFEDFF",
"[ c None",
/* pixels */
"[[[[[[[[[[[[[[[[[[[[[[[[[[[[[[[[",
"[[[[[[[[[[[[[[[[[[[[[[[[[[[[[[[[",
"[[[[[[[[[[[[[[[[[[[[[[[[[[[[[[[[",
" XXXXXXXXXX.[[[[[[[[[[[[[[[[[[[[",
" XXXXXXXXXX.[[[[[[[[[[[[[[[[[[[[",
" XXXXXXXXXX..XXXXXXXXXXXXXXXXXX[",
" XXXXXXXXXXXXXXXXXXXXXXXXXXXXXX[",
"[XXXXXXXXXXXXXXXXXXXXXXXXXXXXXX[",
"[oooooooooooooooooooooooooooooo[",
"[@@@@@@@@@@@@@@@@@@@@@@@@@@@@@@[",
"[@@@@@@@@@@@@@@@@@@@@@@@@@@@@@@[",
"[@@@@@@@@@@@@@@@@@@@@@@@@@@@@@@[",
"[@@@@@@@@@@@@@@c+@@@@@@@@@@@@@@[",
"[@@@@@@@@@@@@@@Vt@@@@@@@@@@@@@@[",
"[@@@@@@@@@@@@@&8~$@@@@@@@@@@@@@[",
"[@@@@@@@@@@@@%bPKx@@@@@@@@@@@@@[",
"[@@@@@@@@@@@@z_fw`-@@@@@@@@@@@@[",
"[@@@@@@@@@@@*nT>#WAO@@@@@@@@@@@[",
"[@@@@@@@@@@@C]s@@s'4@@@@@@@@@@@[",
"[@@@@@@@<qu6'^w9ye^J4r9=@@@@@@@[",
"[@@@@@@@dQGF]mEY/EV`h!U0@@@@@@@[",
"[@@@@@@@j]N]ES]]]]SBGR]0@@@@@@@[",
"[@@@@@@@3gL]pkkkkkki)ik:@@@@@@@[",
"[@@@@@@@@1(H+@@@@@@OlM@@@@@@@@@[",
"[@@@@@@@@vD-@@@@@@@@2'7@@@@@@@@[",
"[@@@@@@@@Z,@@@@@@@@@OIW+@@@@@@@[",
"[@@@@@@@O;@@@@@@@@@@@5aO@@@@@@@[",
"[@@@@@@@@@@@@@@@@@@@@@@@@@@@@@@[",
"[@@@@@@@@@@@@@@@@@@@@@@@@@@@@@@[",
"[[[[[[[[[[[[[[[[[[[[[[[[[[[[[[[[",
"[[[[[[[[[[[[[[[[[[[[[[[[[[[[[[[[",
"[[[[[[[[[[[[[[[[[[[[[[[[[[[[[[[["
};


/* XPM */
static const char *xpm_file[] = {
"16 16 16 2",
"00 c black",
"01 c #848484",
"02 c #D6D6CE",
"03 c gray100",
"04 c none",
"05 c gray100",
"06 c gray100",
"07 c gray100",
"08 c gray100",
"09 c gray100",
"10 c gray100",
"11 c gray100",
"12 c gray100",
"13 c gray100",
"14 c gray100",
"15 c gray100",
"04040404040404040404040404040404",
"04040101010101010101010104040404",
"04040103030303030303030001040404",
"04040103030303030303030002010404",
"04040103030000000000030000000004",
"04040103030303030303030303030004",
"04040103030000000000000003030004",
"04040103030303030303030303030004",
"04040103030000000000000003030004",
"04040103030303030303030303030004",
"04040103030000000000000003030004",
"04040103030303030303030303030004",
"04040103030000000000000003030004",
"04040103030303030303030303030004",
"04040103030303030303030303030004",
"04040000000000000000000000000004"
};

/* XPM */
static char * folder_xpm[] = {
"16 16 121 2",
"  	c None",
". 	c #D9B434",
"+ 	c #E1C25E",
"@ 	c #E2C360",
"# 	c #E2C35F",
"$ 	c #DBB63C",
"% 	c #DAB336",
"& 	c #FEFEFD",
"* 	c #FFFFFE",
"= 	c #FFFEFE",
"- 	c #FFFEFD",
"; 	c #FBF7EA",
"> 	c #E4C76B",
", 	c #E3C76B",
"' 	c #E6CD79",
") 	c #E5CA74",
"! 	c #DAAF35",
"~ 	c #FEFCF7",
"{ 	c #F8E48E",
"] 	c #F5DE91",
"^ 	c #F5E09F",
"/ 	c #F6E1AC",
"( 	c #FEFBEF",
"_ 	c #FEFDF4",
": 	c #FEFCF3",
"< 	c #FEFCF1",
"[ 	c #FEFBEE",
"} 	c #FFFDFA",
"| 	c #DAAF36",
"1 	c #DAAA36",
"2 	c #FDFAF1",
"3 	c #F5DE94",
"4 	c #F4DC93",
"5 	c #F2D581",
"6 	c #EDCA6A",
"7 	c #EACB6C",
"8 	c #EFD385",
"9 	c #EFD280",
"0 	c #EFD07A",
"a 	c #EECF76",
"b 	c #EECF72",
"c 	c #FBF7E9",
"d 	c #DAAE34",
"e 	c #DAAB35",
"f 	c #FBF6E8",
"g 	c #EFD494",
"h 	c #EECE88",
"i 	c #E9C173",
"j 	c #F6E9C9",
"k 	c #FEFCF2",
"l 	c #FEFCF0",
"m 	c #DAAB36",
"n 	c #DAA637",
"o 	c #FFFDF8",
"p 	c #FFFDF6",
"q 	c #FFFCF5",
"r 	c #FCF6D8",
"s 	c #F8E694",
"t 	c #F7E385",
"u 	c #F6DF76",
"v 	c #F5DB68",
"w 	c #F4D85C",
"x 	c #FCF4D7",
"y 	c #DAA435",
"z 	c #DAA136",
"A 	c #FEFCF6",
"B 	c #FCF2C8",
"C 	c #FBEFB9",
"D 	c #FAECAC",
"E 	c #F9E89C",
"F 	c #F7E38B",
"G 	c #F6E07C",
"H 	c #F6DC6C",
"I 	c #F5D95D",
"J 	c #F4D64F",
"K 	c #F3D344",
"L 	c #FCF3D0",
"M 	c #DA9F35",
"N 	c #DA9A36",
"O 	c #FDFAF2",
"P 	c #FAEDB3",
"Q 	c #F9E9A4",
"R 	c #F8E695",
"S 	c #F7E285",
"T 	c #F6DE76",
"U 	c #F5DB65",
"V 	c #F4D757",
"W 	c #F3D449",
"X 	c #F2D13B",
"Y 	c #F1CE30",
"Z 	c #FBF2CC",
"` 	c #DA9835",
" .	c #DA9435",
"..	c #FEFAEF",
"+.	c #F9E9A1",
"@.	c #F8E591",
"#.	c #F7E181",
"$.	c #F6DE72",
"%.	c #F5DA63",
"&.	c #F4D754",
"*.	c #F3D347",
"=.	c #F2D039",
"-.	c #F1CD2E",
";.	c #F0CB26",
">.	c #FBF2CA",
",.	c #D98E33",
"'.	c #FAF0DC",
").	c #F4DDA7",
"!.	c #F4DB9E",
"~.	c #F3DA96",
"{.	c #F3D88E",
"].	c #F3D786",
"^.	c #F2D47F",
"/.	c #F2D379",
"(.	c #F1D272",
"_.	c #F1D06C",
":.	c #F1CF69",
"<.	c #F8EAC2",
"[.	c #D8882D",
"}.	c #D8872D",
"|.	c #D8862C",
"                                ",
"                                ",
"                                ",
"  . + @ @ @ # $                 ",
"  % & * = - * ; > , , , ' )     ",
"  ! ~ { ] ^ / ( _ : < ( [ } |   ",
"  1 2 3 4 5 6 7 8 9 0 a b c d   ",
"  e f g h i j k : k l ( [ * m   ",
"  n * o p q : r s t u v w x y   ",
"  z A B C D E F G H I J K L M   ",
"  N O P Q R S T U V W X Y Z `   ",
"   ...+.@.#.$.%.&.*.=.-.;.>. .  ",
"  ,.'.).!.~.{.].^./.(._.:.<.,.  ",
"    [.}.[.[.[.[.[.[.[.[.}.[.|.  ",
"                                ",
"                                "};